<?xml version="1.0" encoding="UTF-8"?>
<svg id="Capa_1" data-name="Capa 1" xmlns="http://www.w3.org/2000/svg" viewBox="0 0 595.28 841.89">
  <defs>
    <style>
      .cls-1, .cls-2 {
        fill: #184263;
      }

      .cls-3 {
        fill: #f2f4ef;
      }

      .cls-4 {
        fill: #0a1620;
      }

      .cls-2 {
        font-family: AcuminVariableConcept, 'Acumin Variable Concept';
        font-size: 51.74px;
        font-variation-settings: 'wght' 194, 'wdth' 100, 'slnt' 0;
      }
    </style>
  </defs>
  <circle class="cls-3" cx="299.75" cy="394.36" r="262.42"/>
  <g>
    <path class="cls-4" d="m167.83,351.17v57.88c0,6.71-1.63,12.54-4.88,17.5-3.25,5-7.73,8.79-13.44,11.37-5.75,2.63-12.33,3.94-19.75,3.94-6.96,0-13.04-1.13-18.25-3.37-5.25-2.25-9.31-5.71-12.19-10.38-2.92-4.67-4.38-10.5-4.38-17.5v-59.5s21.81.06,21.81.06v53.19c0,3.46.4,6.44,1.19,8.94.83,2.63,2.25,4.67,4.25,6.12,1.96,1.54,4.67,2.31,8.13,2.31,6.46,0,10.71-1.9,12.75-5.69,2-3.83,3-9.31,3-16.44v-48.5s21.75.06,21.75.06Z"/>
    <path class="cls-4" d="m204.83,392.48c-1.04-.71-2.4-1.1-4.06-1.19h-1.13c-5.08.21-7.63,3.75-7.63,10.63v37.88s-20,0-20,0v-37.88c0-18.21,9.21-27.77,27.63-28.69h1.13c1.37.04,2.73.17,4.06.38v18.88Z"/>
    <path class="cls-4" d="m203.95,350.73l19.94-.06v26.38s1.44-.62,1.44-.62l1.44-.63c4.5-1.62,9.1-2.44,13.81-2.44,4.75,0,9.38.81,13.87,2.44,4.38,1.63,8.31,4.02,11.81,7.19,3.46,3.12,6.14,6.77,8.06,10.94,1.96,4.21,2.94,8.73,2.94,13.56s-.96,9.5-2.88,13.63c-1.92,4.13-4.62,7.79-8.12,11-3.54,3.21-7.48,5.6-11.81,7.19-4.37,1.71-9,2.56-13.87,2.56-6.37,0-12.4-1.5-18.06-4.5-5.67-2.96-10.17-7.04-13.5-12.25-3.33-5.13-5.02-10.85-5.06-17.19v-57.19Zm24.94,68.25c3.29,3.21,7.19,4.81,11.69,4.81,4.54,0,8.46-1.6,11.75-4.81,3.33-3.21,5-7.04,5-11.5,0-2.92-.77-5.58-2.31-8-1.54-2.46-3.6-4.42-6.19-5.87-2.54-1.46-5.29-2.19-8.25-2.19s-5.61.73-8.19,2.19c-2.58,1.46-4.64,3.42-6.19,5.87-1.54,2.42-2.31,5.08-2.31,8,0,4.46,1.66,8.29,5,11.5Z"/>
    <path class="cls-4" d="m328.5,437.92c-1.33.58-2.31.98-2.94,1.19-4.42,1.71-9.04,2.56-13.87,2.56-6.37,0-12.4-1.48-18.06-4.44-5.67-3-10.17-7.08-13.5-12.25-3.38-5.25-5.06-11.1-5.06-17.56,0-4.88.98-9.42,2.94-13.63,1.96-4.17,4.64-7.79,8.06-10.88,3.38-3.08,7.29-5.44,11.75-7.06,4.46-1.71,9.08-2.56,13.88-2.56s9.37.83,13.87,2.5c4.5,1.67,8.42,4.04,11.75,7.13,3.5,3.17,6.21,6.79,8.13,10.88,1.96,4.21,2.94,8.75,2.94,13.63l-.06,32.56-19.81-.19v-1.88Zm-31.19-38.56c-1.54,2.46-2.31,5.15-2.31,8.06,0,4.42,1.66,8.23,5,11.44,3.29,3.17,7.19,4.75,11.69,4.75,4.54,0,8.46-1.58,11.75-4.75,3.33-3.21,5-7.02,5-11.44,0-2.92-.77-5.6-2.31-8.06-1.54-2.46-3.6-4.42-6.19-5.87-2.54-1.42-5.29-2.13-8.25-2.13s-5.61.71-8.19,2.13c-2.58,1.46-4.65,3.42-6.19,5.87Z"/>
    <path class="cls-4" d="m380.46,391.36c-5.08.21-7.62,3.75-7.62,10.63v37.81s-20,0-20,0v-37.81c0-18.21,9.21-27.77,27.63-28.69h1.12c18.42.92,27.63,10.48,27.63,28.69v37.81s-20,0-20,0v-37.81c0-6.87-2.54-10.42-7.63-10.63h-1.12Z"/>
    <path class="cls-4" d="m430.89,437.36c-5.67-3-10.17-7.1-13.5-12.31-3.38-5.25-5.06-11.13-5.06-17.63,0-4.88.98-9.42,2.94-13.63,1.96-4.21,4.64-7.85,8.06-10.94,3.46-3.12,7.4-5.52,11.81-7.19,4.5-1.67,9.1-2.5,13.81-2.5s9.37.83,13.87,2.5c4.38,1.58,8.31,3.96,11.81,7.13,3.46,3.17,6.14,6.83,8.06,11,1.96,4.21,2.94,8.75,2.94,13.63,0,4.96-.96,9.5-2.88,13.63-1.92,4.17-4.63,7.85-8.12,11.06-3.54,3.17-7.48,5.56-11.81,7.19-4.37,1.71-9,2.56-13.87,2.56-6.37,0-12.4-1.5-18.06-4.5Zm6.38-18.44c3.29,3.21,7.19,4.81,11.69,4.81s8.46-1.6,11.75-4.81c3.33-3.21,5-7.04,5-11.5,0-2.92-.77-5.6-2.31-8.06-1.54-2.46-3.6-4.42-6.19-5.87-2.54-1.46-5.29-2.19-8.25-2.19-2.88,0-5.61.73-8.19,2.19-2.58,1.46-4.65,3.42-6.19,5.87-1.54,2.46-2.31,5.15-2.31,8.06,0,4.46,1.66,8.29,5,11.5Z"/>
    <path class="cls-1" d="m487.67,424.36c1.08-1.75,2.48-3.1,4.19-4.06,1.75-1,3.6-1.5,5.56-1.5s3.81.5,5.56,1.5c1.71,1.04,3.08,2.42,4.13,4.12,1.04,1.67,1.56,3.5,1.56,5.5,0,3.33-1.08,6.08-3.25,8.25-2.21,2.21-4.88,3.31-8,3.31-2.08,0-3.98-.5-5.69-1.5-1.75-1-3.13-2.4-4.13-4.19-1-1.83-1.5-3.79-1.5-5.88s.52-3.9,1.56-5.56Z"/>
    <text class="cls-2" transform="translate(381.45 488.73) scale(1.08 1)"><tspan x="0" y="0">Shop</tspan></text>
  </g>
</svg>